<svg width="966" height="384" viewBox="0 0 966 384" fill="none" xmlns="http://www.w3.org/2000/svg">
<path d="M79.4247 359.167H35.8166L28.673 376.806C28.0793 378.261 26.6813 379.2 25.13 379.2H3.83342C1.05644 379.2 -0.782112 376.346 0.32868 373.818L42.4813 278.328C43.0942 276.949 44.4731 276.049 45.9861 276.049H69.734C71.247 276.049 72.6259 276.949 73.2388 278.328L115.525 373.818C116.655 376.346 114.798 379.2 112.021 379.2H90.1305C88.56 379.2 87.162 378.261 86.5874 376.806L79.4247 359.167ZM69.8106 335.036L59.3922 309.086C58.741 307.477 56.4811 307.477 55.83 309.086L45.3924 335.036C44.8944 336.3 45.8137 337.66 47.1735 337.66H68.0295C69.3893 337.66 70.3277 336.281 69.8106 335.036Z" fill="#135436"/>
<path d="M195.042 325.422H213.16C215.267 325.422 216.99 327.146 216.99 329.252V366.138C216.99 367.402 216.377 368.609 215.324 369.317C209.827 372.995 203.603 375.848 196.651 377.897C188.991 380.157 181.33 381.287 173.669 381.287C162.868 381.287 153.139 379.008 144.501 374.431C135.864 369.854 129.084 363.495 124.162 355.356C119.24 347.197 116.789 337.966 116.789 327.663C116.789 317.359 119.24 308.109 124.162 299.97C129.065 291.811 135.902 285.453 144.635 280.895C153.369 276.336 163.27 274 174.282 274C183.915 274 192.553 275.628 200.213 278.865C206.591 281.565 212.068 285.242 216.684 289.915C218.216 291.466 218.12 293.994 216.511 295.45L203.507 307.209C202.033 308.549 199.773 308.511 198.317 307.151C191.863 301.157 184.356 298.169 175.757 298.169C166.909 298.169 159.784 300.851 154.384 306.194C148.983 311.556 146.283 318.7 146.283 327.624C146.283 333.332 147.508 338.407 149.96 342.869C152.411 347.331 155.858 350.817 160.282 353.326C164.706 355.835 169.762 357.08 175.45 357.08C180.602 357.08 185.486 356.122 190.044 354.207C190.752 353.9 191.212 353.192 191.212 352.426V329.252C191.212 327.146 192.936 325.422 195.042 325.422Z" fill="#135436"/>
<path d="M277.95 351.794H264.965C263.912 351.794 263.05 352.656 263.05 353.709V375.369C263.05 377.476 261.327 379.2 259.22 379.2H237.694C235.587 379.2 233.863 377.476 233.863 375.369V279.899C233.863 277.792 235.587 276.068 237.694 276.068H281.014C290.341 276.068 298.442 277.62 305.337 280.703C312.212 283.806 317.517 288.21 321.252 293.956C324.987 299.701 326.844 306.462 326.844 314.218C326.844 321.687 325.101 328.199 321.616 333.734C318.475 338.713 314.147 342.735 308.593 345.78C307.578 346.336 307.233 347.619 307.884 348.557L324.795 373.186C326.538 375.733 324.718 379.18 321.635 379.18H299.687C298.423 379.18 297.236 378.548 296.527 377.514L279.521 352.617C279.176 352.119 278.582 351.794 277.95 351.794ZM292.812 303.034C289.767 300.372 285.247 299.05 279.253 299.05H264.965C263.912 299.05 263.05 299.912 263.05 300.965V327.337C263.05 328.39 263.912 329.252 264.965 329.252H279.253C285.247 329.252 289.767 327.95 292.812 325.345C295.857 322.741 297.37 319.025 297.37 314.218C297.389 309.411 295.857 305.677 292.812 303.034Z" fill="#135436"/>
<path d="M364.266 374.354C355.571 369.739 348.734 363.361 343.774 355.203C338.813 347.044 336.343 337.871 336.343 327.644C336.343 317.436 338.813 308.243 343.774 300.084C348.734 291.926 355.571 285.548 364.266 280.933C372.941 276.317 382.747 274 393.644 274C404.542 274 414.347 276.317 423.042 280.933C431.737 285.548 438.555 291.945 443.515 300.084C448.475 308.243 450.965 317.417 450.965 327.644C450.965 337.871 448.475 347.044 443.515 355.203C438.555 363.361 431.718 369.739 423.042 374.354C414.347 378.97 404.542 381.287 393.644 381.287C382.747 381.287 372.941 378.97 364.266 374.354ZM407.797 353.422C412.03 350.97 415.362 347.504 417.814 343.041C420.265 338.579 421.491 333.447 421.491 327.644C421.491 321.841 420.265 316.708 417.814 312.246C415.362 307.783 412.011 304.317 407.797 301.866C403.565 299.414 398.853 298.188 393.644 298.188C388.435 298.188 383.724 299.414 379.491 301.866C375.259 304.317 371.926 307.783 369.475 312.246C367.024 316.708 365.798 321.841 365.798 327.644C365.798 333.447 367.024 338.579 369.475 343.041C371.926 347.504 375.278 350.97 379.491 353.422C383.724 355.873 388.435 357.099 393.644 357.099C398.853 357.099 403.565 355.873 407.797 353.422Z" fill="#135436"/>
<path d="M489.168 344.365H487.668V345.865V377.408C487.668 378.686 486.616 379.738 485.338 379.738H463.83C462.552 379.738 461.5 378.686 461.5 377.408V281.918C461.5 280.639 462.552 279.587 463.83 279.587H537.066C538.344 279.587 539.396 280.639 539.396 281.918V296.799C539.396 298.077 538.344 299.129 537.066 299.129H491.083C489.211 299.129 487.668 300.633 487.668 302.544V321.408C487.668 323.29 489.201 324.823 491.083 324.823H530.861C532.139 324.823 533.191 325.876 533.191 327.154V342.035C533.191 343.313 532.139 344.365 530.861 344.365H489.168Z" fill="#1DA042" stroke="#1DA042" stroke-width="3"/>
<path d="M577.032 375.031L577.03 375.029C568.564 370.536 561.931 364.343 557.116 356.423C552.309 348.517 549.903 339.616 549.903 329.644C549.903 319.69 552.309 310.77 557.116 302.864C561.931 294.944 568.564 288.752 577.03 284.258C585.486 279.769 595.046 277.5 605.724 277.5C616.402 277.5 625.962 279.769 634.418 284.258C642.881 288.75 649.497 294.961 654.314 302.865C659.121 310.773 661.545 319.673 661.545 329.644C661.545 339.614 659.121 348.515 654.313 356.423C649.498 364.343 642.864 370.536 634.417 375.03C625.961 379.519 616.402 381.787 605.724 381.787C595.044 381.787 585.485 379.537 577.032 375.031ZM620.631 302.588L620.629 302.587C616.153 299.995 611.18 298.708 605.724 298.708C600.268 298.708 595.295 299.995 590.819 302.587C586.338 305.182 582.816 308.854 580.24 313.543C577.651 318.256 576.378 323.643 576.378 329.663C576.378 335.682 577.651 341.07 580.24 345.783C582.817 350.474 586.358 354.143 590.817 356.737L590.819 356.739C595.295 359.331 600.268 360.618 605.724 360.618C611.18 360.618 616.153 359.331 620.629 356.739C625.11 354.143 628.632 350.472 631.208 345.783C633.797 341.07 635.07 335.682 635.07 329.663C635.07 323.643 633.797 318.256 631.208 313.543C628.631 308.851 625.09 305.182 620.631 302.588Z" fill="#1DA042" stroke="#1DA042" stroke-width="3"/>
<path d="M722.159 352.967L721.713 352.313H720.921H705.006H703.506V353.813V377.388C703.506 378.667 702.454 379.719 701.175 379.719H679.668C678.39 379.719 677.338 378.667 677.338 377.388V281.918C677.338 280.639 678.39 279.587 679.668 279.587H722.989C732.15 279.587 740.034 281.111 746.697 284.09C753.339 287.088 758.408 291.314 761.969 296.792C765.524 302.262 767.319 308.73 767.319 316.237C767.319 323.465 765.635 329.691 762.321 334.953L762.32 334.955C758.998 340.248 754.244 344.414 747.98 347.445L746.409 348.205L747.396 349.644L765.532 376.071C766.593 377.623 765.486 379.719 763.61 379.719H741.662C740.896 379.719 740.171 379.334 739.74 378.706C739.74 378.706 739.74 378.705 739.739 378.705L722.159 352.967ZM735.753 303.922C732.327 300.928 727.391 299.569 721.208 299.569H706.921C705.039 299.569 703.506 301.103 703.506 302.984V329.356C703.506 331.238 705.039 332.771 706.921 332.771H721.208C727.388 332.771 732.319 331.433 735.742 328.504C739.19 325.556 740.825 321.383 740.825 316.237C740.825 311.092 739.19 306.907 735.753 303.922Z" fill="#1DA042" stroke="#1DA042" stroke-width="3"/>
<path d="M809.829 303.138V303.124L809.828 303.111C809.795 301.236 808.3 299.723 806.394 299.723H780.463C779.185 299.723 778.133 298.67 778.133 297.392V281.918C778.133 280.639 779.185 279.587 780.463 279.587H865.19C866.468 279.587 867.52 280.639 867.52 281.918V297.392C867.52 298.67 866.468 299.723 865.19 299.723H839.412C837.53 299.723 835.997 301.256 835.997 303.138V377.408C835.997 378.686 834.945 379.738 833.666 379.738H812.159C810.881 379.738 809.829 378.686 809.829 377.408V303.138Z" fill="#1DA042" stroke="#1DA042" stroke-width="3"/>
<path d="M963.796 362.508V377.388C963.796 378.667 962.744 379.719 961.466 379.719H886.315C885.036 379.719 883.984 378.667 883.984 377.388V281.918C883.984 280.639 885.036 279.587 886.315 279.587H959.55C960.829 279.587 961.881 280.639 961.881 281.918V296.799C961.881 298.077 960.829 299.129 959.55 299.129H913.28C911.398 299.129 909.865 300.662 909.865 302.544V316.103C909.865 317.985 911.398 319.518 913.28 319.518H953.364C954.643 319.518 955.695 320.571 955.695 321.849V336.002C955.695 337.28 954.643 338.332 953.364 338.332H913.28C911.398 338.332 909.865 339.866 909.865 341.747V356.762C909.865 358.644 911.398 360.177 913.28 360.177H961.466C962.744 360.177 963.796 361.229 963.796 362.508Z" fill="#1DA042" stroke="#1DA042" stroke-width="3"/>
<g clip-path="url(#clip0)">
<path d="M572.265 35.7346C548.442 11.9115 517.227 0 486.004 0C454.781 0 423.558 11.9115 399.735 35.7346C352.088 83.3808 352.088 160.627 399.735 208.273C423.558 232.096 454.781 244.008 486.004 244.008C517.227 244.008 548.45 232.096 572.273 208.273C619.912 160.627 619.912 83.3808 572.265 35.7346ZM383.769 142.131C383.769 120.198 392.312 99.583 407.813 84.0743C423.321 68.5657 443.936 60.0302 465.869 60.0302C487.802 60.0302 508.417 68.5733 523.926 84.0743C539.434 99.583 547.97 120.198 547.97 142.131C547.97 164.064 539.427 184.679 523.926 200.187C508.417 215.696 487.802 224.231 465.869 224.231C465.763 224.231 465.663 224.231 465.557 224.231C475.136 221.175 484.152 215.871 491.75 208.273C517.158 182.865 517.158 141.666 491.75 116.258C479.046 103.553 462.394 97.1976 445.742 97.1976C429.091 97.1976 412.439 103.553 399.735 116.258C392.137 123.856 386.832 132.871 383.776 142.451C383.769 142.337 383.769 142.23 383.769 142.131ZM407.813 124.336C417.941 114.208 431.415 108.629 445.742 108.629C460.07 108.629 473.536 114.208 483.672 124.336C504.584 145.248 504.584 179.275 483.672 200.187C473.544 210.315 460.07 215.894 445.742 215.894C444.104 215.894 442.473 215.81 440.857 215.665C444.706 213.905 448.318 211.436 451.489 208.265C465.785 193.968 465.785 170.801 451.489 156.504C444.34 149.355 434.974 145.781 425.608 145.781C416.242 145.781 406.875 149.355 399.727 156.504C396.572 159.659 394.11 163.256 392.35 167.089C390.986 151.794 396.13 136.019 407.813 124.336ZM407.813 164.59C412.568 159.834 418.886 157.22 425.608 157.22C432.329 157.22 438.647 159.842 443.403 164.59C453.218 174.405 453.218 190.371 443.403 200.187C438.647 204.943 432.329 207.557 425.608 207.557C419.305 207.557 413.361 205.255 408.72 201.056C408.415 200.766 408.11 200.484 407.805 200.187C407.5 199.882 407.211 199.562 406.914 199.25C398.012 189.381 398.31 174.101 407.813 164.59ZM564.187 200.187C544.274 220.101 518.088 231.479 490.089 232.492C505.445 228.392 519.963 220.322 532.012 208.273C568.539 171.746 568.539 112.523 532.012 75.9961C513.752 57.7363 489.814 48.5988 465.877 48.5988C441.939 48.5988 418.002 57.7287 399.742 75.9961C387.694 88.0449 379.623 102.563 375.523 117.919C376.536 89.9196 387.907 63.7416 407.828 43.8205C428.702 22.9314 456.465 11.4314 486.004 11.4314C515.535 11.4314 543.306 22.9314 564.187 43.8129C585.069 64.6943 596.569 92.465 596.569 121.996C596.569 151.535 585.069 179.298 564.187 200.187Z" fill="#135436"/>
<path d="M568.089 207.465C579.795 195.759 588.483 182.186 594.168 167.707C549.258 146.299 493.869 154.179 456.678 191.37C445.719 202.329 437.313 214.88 431.445 228.27C448.364 237.164 467.02 241.615 485.668 241.615C515.497 241.607 545.325 230.229 568.089 207.465Z" fill="#1DA042"/>
<path d="M498.891 212.571C516.236 212.571 532.743 217.967 546.514 227.958C550.012 225.961 553.426 223.774 556.757 221.396C539.876 207.899 519.384 201.14 498.891 201.14C481.972 201.14 465.054 205.743 450.17 214.941C454.415 208.319 459.399 202.1 465.092 196.407C485.76 175.739 513.249 164.353 542.483 164.353C561.009 164.353 578.819 168.926 594.656 177.538C596.401 174.123 597.978 170.648 599.381 167.12C581.654 157.662 562.076 152.922 542.49 152.922C511.557 152.922 480.623 164.719 457.021 188.321C444.691 200.652 435.591 214.979 429.7 230.259C433.709 232.347 437.809 234.192 441.985 235.8C457.273 220.817 477.445 212.571 498.891 212.571Z" fill="#135436"/>
<path d="M486.004 11.4314C515.535 11.4314 543.306 22.9314 564.187 43.8129C585.069 64.6943 596.569 92.465 596.569 121.996C596.569 151.527 585.069 179.298 564.187 200.18C543.306 221.061 515.535 232.561 486.004 232.561C456.473 232.561 428.702 221.069 407.813 200.187C386.931 179.298 375.431 151.535 375.431 122.004C375.431 92.4726 386.931 64.7019 407.813 43.8205C428.702 22.9314 456.465 11.4314 486.004 11.4314ZM486.004 0C454.781 0 423.558 11.9115 399.735 35.7346C352.088 83.3808 352.088 160.627 399.735 208.273C423.558 232.096 454.781 244.008 486.004 244.008C517.227 244.008 548.45 232.096 572.273 208.273C619.919 160.627 619.919 83.3808 572.273 35.7346C548.442 11.9115 517.227 0 486.004 0Z" fill="#135436"/>
</g>
<defs>
<clipPath id="clip0">
<rect width="244" height="244" fill="white" transform="translate(364)"/>
</clipPath>
</defs>
</svg>
